<svg width="136" height="61" viewBox="0 0 136 61" fill="none" xmlns="http://www.w3.org/2000/svg">
<mask id="mask0_14_753" style="mask-type:luminance" maskUnits="userSpaceOnUse" x="53" y="0" width="29" height="33">
<path d="M53.6993 0.738861H81.3504V32.0593H53.6993V0.738861Z" fill="white"/>
</mask>
<g mask="url(#mask0_14_753)">
<path fill-rule="evenodd" clip-rule="evenodd" d="M69.7148 26.787C69.6319 27.0187 68.5627 27.5619 68.5627 28.4682C68.5627 29.373 69.3031 29.11 69.4675 28.9786C69.1716 28.9128 69.0229 28.6483 69.1716 28.2867C69.3203 27.9235 70.0436 27.3803 70.2565 27.5118C70.3707 27.6151 70.4521 27.7403 70.4991 27.8875C70.546 28.0362 70.5539 28.1849 70.5194 28.3352C71.0626 27.9892 70.7511 26.8214 70.3394 26.3925C69.9277 25.9636 69.7962 26.5569 69.7148 26.787ZM65.3849 26.787C65.302 26.5553 65.1705 25.9636 64.7588 26.3925C64.3471 26.8199 64.0356 27.9892 64.5788 28.3352C64.5459 28.1849 64.5522 28.0362 64.5991 27.889C64.6461 27.7403 64.7275 27.6151 64.8418 27.5118C65.0546 27.3803 65.7794 27.925 65.9266 28.2867C66.0737 28.6483 65.9266 28.9128 65.6307 28.9786C65.7951 29.11 66.5355 29.373 66.5355 28.4682C66.5355 27.5619 65.4663 27.0187 65.3849 26.787ZM80.3078 11.8359C79.6065 11.9471 78.3354 11.4195 77.0205 11.4195C75.704 11.4195 74.6959 12.2539 74.2357 12.2539C73.5125 12.2539 72.2414 11.3647 71.3194 9.84945C72.1631 10.6619 73.071 11.3444 73.7755 11.1785C73.8616 11.155 73.9398 11.1158 74.0103 11.0595C74.0807 11.0031 74.1355 10.9358 74.1778 10.8576C74.2185 10.7777 74.2435 10.6932 74.2498 10.604C74.256 10.5147 74.2435 10.4271 74.2138 10.3441L76.9031 8.70201C77.0471 8.61279 77.1802 8.51103 77.3039 8.39363C77.426 8.27623 77.5355 8.14786 77.631 8.00854C77.7281 7.86766 77.8079 7.71895 77.8721 7.56241C77.9363 7.40587 77.9832 7.24307 78.013 7.07557C78.0427 6.90807 78.0537 6.74057 78.0474 6.56995C78.0427 6.40088 78.0177 6.23339 77.977 6.06902C77.9363 5.90465 77.8768 5.74655 77.8032 5.59471C77.7281 5.4413 77.6373 5.29885 77.5324 5.16579L75.9232 3.13078C75.7338 2.89127 75.5913 2.62672 75.4958 2.33869C75.3393 1.86907 75.2594 1.38693 75.2563 0.89383C75.2563 0.843737 75.2328 0.810864 75.1859 0.796775C75.1389 0.781121 75.1013 0.793644 75.0732 0.834344C73.9179 2.49366 75.7698 4.38622 75.7698 5.5994C75.7698 6.87207 73.9289 7.55458 72.5044 8.10247C72.185 7.9428 71.8563 7.92088 71.5182 8.03672C71.1659 8.17761 70.7996 8.25118 70.4208 8.25744C69.6319 7.79408 68.558 7.8614 67.5483 8.10247C66.5402 7.8614 65.4663 7.79408 64.6774 8.25744C64.2986 8.25118 63.9338 8.17761 63.5816 8.03672C63.2435 7.92088 62.9148 7.9428 62.5938 8.10247C61.1693 7.55458 59.3284 6.87363 59.3284 5.5994C59.3284 4.38622 61.1803 2.49366 60.025 0.834344C59.9969 0.793644 59.9593 0.781121 59.9123 0.796775C59.8654 0.812429 59.8419 0.843737 59.8419 0.89383C59.8388 1.38693 59.7589 1.86907 59.6024 2.33869C59.5069 2.62672 59.3644 2.89127 59.175 3.13078L57.5658 5.16579C57.4609 5.29885 57.3701 5.4413 57.295 5.59471C57.2214 5.74655 57.1619 5.90465 57.1212 6.06902C57.0805 6.23339 57.0555 6.40088 57.0508 6.56995C57.0445 6.74057 57.0571 6.90807 57.0868 7.07557C57.1165 7.24307 57.1635 7.4043 57.2277 7.56241C57.2919 7.71895 57.3717 7.86766 57.4672 8.00854C57.5627 8.14786 57.6723 8.27623 57.7944 8.39363C57.918 8.51103 58.0511 8.61279 58.1951 8.70201L60.8844 10.3441C60.8547 10.4271 60.8422 10.5147 60.8484 10.604C60.8547 10.6932 60.8797 10.7777 60.9204 10.8576C60.9627 10.9358 61.0175 11.0047 61.0879 11.0595C61.1584 11.1158 61.2367 11.155 61.3227 11.1785C62.0272 11.3444 62.9335 10.6619 63.7789 9.84945C62.8568 11.3647 61.5857 12.2539 60.8625 12.2539C60.4007 12.2539 59.3942 11.4195 58.0793 11.4195C56.7643 11.4195 55.4917 11.9471 54.7904 11.8359C54.0891 11.7264 53.7807 12.7204 54.2863 13.2479C54.7904 13.7755 55.0361 14.6145 55.8486 15.0105C56.6594 15.4066 57.3983 16.3599 58.8025 16.3599C58.97 16.3615 59.1375 16.349 59.3034 16.3223C58.7461 16.2002 58.2201 15.9999 57.7239 15.7181C57.2825 15.4363 56.2117 14.5816 55.8173 14.3687C55.4228 14.1558 55.2255 13.4624 54.9469 13.1994C54.6667 12.9364 54.781 12.5247 55.3398 12.4746C56.1585 12.3807 56.9694 12.2445 57.774 12.0629C58.3814 11.9142 59.1281 12.7298 59.5335 12.9849C59.6509 13.0444 59.7527 13.1242 59.8403 13.2229C59.928 13.3215 59.9937 13.4311 60.0391 13.5547C60.0861 13.6784 60.1064 13.8068 60.1049 13.9383C60.1033 14.0697 60.0767 14.1965 60.0266 14.3186C59.9593 14.4783 59.9311 14.6458 59.9436 14.818C59.9546 14.9918 60.0047 15.153 60.0924 15.3017C60.7717 13.6267 62.1822 13.2307 62.9022 13.8255C62.0976 13.6596 61.0566 14.5675 60.6011 15.8136C60.3146 16.5947 60.4696 17.7453 60.9079 18.2509C61.0629 19.3044 61.2163 20.6882 61.2163 20.6882C61.0097 21.5038 62.2636 25.015 62.7034 27.2676C62.9946 26.9357 63.2419 26.5725 63.4423 26.1781C63.3124 27.0453 63.112 27.8953 62.8396 28.7265C62.6205 29.4904 62.7958 30.8351 63.4971 30.8351C64.1984 30.8351 64.1326 30.6379 64.549 30.594C64.9654 30.9885 65.0312 31.6037 65.5791 31.8667C66.1285 32.1297 67.049 31.9105 67.553 31.9105C68.0571 31.9105 68.9775 32.1297 69.5254 31.8667C70.0749 31.6037 70.139 30.9885 70.5554 30.594C70.9718 30.6379 70.9077 30.8351 71.609 30.8351C72.3102 30.8351 72.484 29.4904 72.2664 28.7265C71.994 27.8937 71.7921 27.0453 71.6637 26.1781C71.8625 26.5725 72.1083 26.9357 72.401 27.2691C72.8409 25.015 74.0948 21.5038 73.8866 20.6882C73.8866 20.6882 74.04 19.306 74.195 18.2509C74.6333 17.7453 74.7883 16.5963 74.5034 15.8136C74.0463 14.5691 73.0068 13.6612 72.2007 13.8255C72.9239 13.2307 74.3343 13.6283 75.0121 15.3033C75.0998 15.153 75.1483 14.9918 75.1608 14.818C75.1718 14.6458 75.1436 14.4799 75.0763 14.3186C75.0262 14.1981 75.0012 14.0713 74.998 13.9383C74.9965 13.8068 75.0184 13.68 75.0638 13.5563C75.1092 13.4326 75.1765 13.3215 75.2626 13.2229C75.3502 13.1242 75.4536 13.0444 75.5694 12.9849C75.9748 12.7298 76.7215 11.9142 77.3289 12.0629C78.1335 12.2445 78.9444 12.3823 79.7631 12.4746C80.3219 12.5247 80.4362 12.9364 80.1576 13.1994C79.8774 13.4639 79.6801 14.1543 79.2856 14.3687C78.8912 14.5832 77.8236 15.4379 77.379 15.7181C76.8828 15.9999 76.3568 16.2018 75.7995 16.3223C75.9654 16.349 76.1329 16.3615 76.3004 16.3615C77.703 16.3615 78.4435 15.405 79.2543 15.0105C80.0652 14.6161 80.3125 13.777 80.8166 13.2479C81.3222 12.7204 81.0091 11.7264 80.3078 11.8359ZM67.5483 14.1543C68.1635 14.1543 68.4923 15.978 69.1497 17.0534C68.1416 16.7012 68.0539 15.2532 67.5483 15.2532C67.0443 15.2532 66.9566 16.7012 65.9485 17.0534C66.6075 15.9764 66.9347 14.1543 67.5483 14.1543ZM65.5759 23.1256C66.0581 22.861 66.8689 23.0817 67.5483 23.0817C68.2293 23.0817 69.0401 22.861 69.5223 23.1256C70.0044 23.3901 69.9606 23.9161 70.3551 24.9477C69.9387 24.6847 69.7195 24.1133 69.4127 23.8284C69.1059 23.5419 68.0962 23.8284 67.5483 23.8284C67.0004 23.8284 65.9923 23.5435 65.6855 23.8284C65.3787 24.1133 65.1595 24.6847 64.7431 24.9477C65.1376 23.9145 65.0938 23.3885 65.5759 23.1256ZM62.7629 22.7326C63.0228 20.8808 63.2153 19.63 62.9555 19.3702C62.6956 19.1088 62.2291 19.1088 61.9004 18.5734C62.1086 18.719 62.3403 18.7925 62.5938 18.7925C62.849 18.7941 63.0807 18.7237 63.2904 18.5796C63.3515 18.5374 63.4141 18.5327 63.4814 18.5656C63.5472 18.5984 63.5816 18.6532 63.5832 18.7284C63.53 20.1075 63.256 21.4428 62.7629 22.7311V22.7326ZM63.1605 17.4009C63.1605 18.348 61.2899 18.3261 61.2899 16.6386C61.3087 16.3051 61.4464 16.0296 61.7016 15.8152C62.3387 15.6289 63.3859 16.0828 63.5926 17.7296C63.4642 17.5981 63.3202 17.4886 63.1605 17.3993V17.4009ZM70.5695 30.018C70.2737 30.2559 69.9387 30.4093 69.5661 30.4782C69.2342 30.4281 68.9274 30.3123 68.6441 30.1307C68.4782 30.2387 68.295 30.2919 68.0962 30.2919C67.899 30.2919 67.7158 30.2387 67.5483 30.1307C67.3824 30.2387 67.1992 30.2919 67.0004 30.2919C66.8032 30.2919 66.62 30.2387 66.4525 30.1307C66.1708 30.3123 65.864 30.4281 65.5321 30.4782C65.1595 30.4078 64.8261 30.2544 64.5302 30.018C64.3173 29.852 63.7256 28.4855 63.6599 27.8577C63.5941 27.2284 64.1201 26.128 64.3674 25.865C64.4739 25.7789 64.5897 25.7131 64.7181 25.6646C64.8464 25.6177 64.9779 25.591 65.1141 25.5863C65.2519 25.5832 65.3849 25.6004 65.5149 25.6396C65.6464 25.6787 65.7669 25.7366 65.8796 25.8149C66.3727 26.2109 67.0411 25.8979 67.5515 25.8979C68.0602 25.8979 68.7302 26.2109 69.2233 25.8149C69.3344 25.7366 69.455 25.6787 69.5865 25.6396C69.718 25.6004 69.851 25.5832 69.9872 25.5879C70.1234 25.591 70.2565 25.6177 70.3832 25.6646C70.5116 25.7131 70.629 25.7789 70.7355 25.865C70.9812 26.128 71.5088 27.2316 71.443 27.8577C71.3773 28.4839 70.784 29.852 70.5695 30.0164V30.018ZM72.1443 19.3702C71.8829 19.63 72.0739 20.8792 72.3353 22.7326C71.8438 21.4428 71.5698 20.1075 71.5166 18.7284C71.5182 18.6532 71.551 18.5984 71.6183 18.5656C71.6841 18.5311 71.7483 18.5374 71.8093 18.5796C72.0191 18.7237 72.2508 18.7941 72.5044 18.7925C72.7595 18.7925 72.9896 18.719 73.1994 18.5734C72.8691 19.1072 72.4042 19.1072 72.1443 19.3686V19.3702ZM73.3966 15.8152C73.6518 16.0296 73.7895 16.3051 73.8083 16.6386C73.8083 18.3276 71.9377 18.348 71.9377 17.4009C71.778 17.4886 71.634 17.5981 71.5056 17.7296C71.7123 16.0828 72.7595 15.6289 73.3966 15.8136V15.8152Z" fill="#EFEFEF"/>
</g>
<mask id="mask1_14_753" style="mask-type:luminance" maskUnits="userSpaceOnUse" x="49" y="1" width="37" height="38">
<path d="M49.2911 1.20222H85.7585V38.5541H49.2911V1.20222Z" fill="white"/>
</mask>
<g mask="url(#mask1_14_753)">
<path fill-rule="evenodd" clip-rule="evenodd" d="M60.7498 6.24749L67.5483 2.55629L74.3484 6.24749C74.6536 6.03772 74.8618 5.81544 74.8618 5.59941C74.8571 5.51645 74.8431 5.43505 74.8164 5.35521L67.7878 1.53565C67.6281 1.44956 67.4685 1.45112 67.3088 1.53878L60.2818 5.35365C60.2551 5.43348 60.2395 5.51488 60.2348 5.59785C60.2348 5.81544 60.4461 6.03772 60.7498 6.24749ZM85.4188 11.1112L78.8364 7.53737C78.7456 7.8661 78.6063 8.17292 78.4215 8.45939L84.5438 11.7827L76.6307 31.0339L67.5483 37.3847L58.4659 31.0339L50.5544 11.7827L56.6767 8.45939C56.4904 8.17292 56.3526 7.8661 56.2618 7.53737L49.6809 11.1112C49.623 11.1409 49.5745 11.1816 49.5322 11.2317C49.4915 11.2802 49.4602 11.3366 49.4398 11.3976C49.4195 11.4587 49.4117 11.5213 49.4164 11.587C49.4195 11.6512 49.4351 11.7123 49.4633 11.7702L57.594 31.5536C57.6347 31.6507 57.6989 31.7274 57.7865 31.7853L67.2618 38.4085C67.3511 38.4711 67.4481 38.5009 67.5546 38.4993C67.661 38.4993 67.7581 38.4664 67.8457 38.4038L77.3289 31.7744C77.4103 31.7164 77.4682 31.6429 77.5058 31.5521L85.6458 11.7467C85.6944 11.6277 85.6975 11.5072 85.6537 11.3851C85.6114 11.2646 85.5331 11.1722 85.4188 11.1112Z" fill="#EFEFEF"/>
</g>
<mask id="mask2_14_753" style="mask-type:luminance" maskUnits="userSpaceOnUse" x="39" y="14" width="57" height="19">
<path d="M39.188 14.8274H95.9117V32.8607H39.188V14.8274Z" fill="white"/>
</mask>
<g mask="url(#mask2_14_753)">
<path fill-rule="evenodd" clip-rule="evenodd" d="M45.7111 21.3347L47.505 20.3705C47.7633 20.2264 48.0404 20.1388 48.3331 20.1059C48.6274 20.073 48.9154 20.0997 49.2003 20.1826L52.472 21.0812L51.9836 19.893L49.4539 19.2293C49.1659 19.1604 48.9029 19.0383 48.665 18.863C48.427 18.6877 48.2314 18.4732 48.0795 18.218L47.0072 16.4836C46.8272 16.1799 46.5611 16.0046 46.2136 15.9545L40.3699 15.0419C40.3167 15.0325 40.2839 15.056 40.2729 15.1076L39.1928 19.1526C39.174 19.2042 39.1912 19.2403 39.2413 19.2606L44.7593 21.3958C45.0865 21.5273 45.4027 21.5069 45.7111 21.3347ZM41.1198 15.9122C41.1354 15.8527 41.1699 15.8089 41.2231 15.7776C41.2763 15.7463 41.3327 15.7385 41.3921 15.7541L45.697 16.9125C45.758 16.9266 45.805 16.961 45.8363 17.0143C45.8692 17.0691 45.877 17.1254 45.8598 17.1865C45.8441 17.2475 45.8081 17.2929 45.7533 17.3226C45.6985 17.354 45.6422 17.3602 45.5827 17.3414L41.2779 16.1846C41.2184 16.1689 41.173 16.1345 41.1433 16.0813C41.1119 16.0281 41.1041 15.9717 41.1198 15.9122ZM40.8552 16.9C40.8709 16.8405 40.9053 16.7967 40.9585 16.7654C41.0118 16.7356 41.0681 16.7278 41.1276 16.7434L46.0226 18.0584C46.0836 18.0725 46.1306 18.1069 46.1619 18.1601C46.1948 18.2149 46.2026 18.2713 46.1854 18.3323C46.1697 18.3934 46.1337 18.4388 46.0789 18.4685C46.0257 18.4998 45.9678 18.5061 45.9083 18.4889L41.0133 17.1739C40.9538 17.1583 40.9084 17.1238 40.8771 17.069C40.8474 17.0158 40.8396 16.9595 40.8552 16.9ZM40.5907 17.8893C40.6079 17.8298 40.6423 17.7844 40.6955 17.7531C40.7488 17.7234 40.8036 17.7156 40.863 17.7312L45.758 19.0446C45.8191 19.0602 45.866 19.0947 45.8974 19.1479C45.9302 19.2027 45.9381 19.259 45.9208 19.3201C45.9052 19.3796 45.8692 19.4265 45.8144 19.4563C45.7612 19.4876 45.7032 19.4938 45.6438 19.4751L40.7472 18.1648C40.6877 18.1476 40.6439 18.1132 40.6126 18.0584C40.5828 18.0052 40.575 17.9488 40.5907 17.8893ZM40.3261 18.8771C40.3433 18.8176 40.3778 18.7722 40.431 18.7425C40.4842 18.7111 40.5406 18.7033 40.6001 18.719L44.9049 19.8758C44.9644 19.893 45.0098 19.9275 45.0411 19.9807C45.0708 20.0339 45.0786 20.0903 45.063 20.1497C45.0473 20.2092 45.0129 20.2546 44.9581 20.2859C44.9049 20.3172 44.8485 20.3235 44.7891 20.3078L40.4858 19.151C40.4263 19.1354 40.3809 19.0994 40.3496 19.0461C40.3199 18.9929 40.312 18.9366 40.3277 18.8771H40.3261ZM55.0158 27.2613L53.2297 27.7309L53.2015 27.6276C53.1843 27.5619 53.1545 27.5024 53.1154 27.4492C53.0747 27.396 53.0262 27.3521 52.9682 27.3161C52.9103 27.2817 52.8493 27.2598 52.782 27.2488C52.7162 27.2394 52.6505 27.241 52.5847 27.2566L42.6132 29.5546C41.1151 29.9006 42.0089 33.2427 43.4788 32.7919L53.2625 29.7863C53.3267 29.766 53.3846 29.7362 53.4363 29.6939C53.4879 29.6517 53.5302 29.6 53.5631 29.5421C53.5944 29.4826 53.6147 29.42 53.6226 29.3543C53.6304 29.2869 53.6257 29.2228 53.6085 29.157L53.5819 29.0537L55.5292 28.5183L55.0158 27.2613ZM52.6567 28.188L43.4162 30.6676C42.9278 30.7803 42.9685 31.682 43.2518 32.3113C42.5067 32.3896 41.9573 30.2356 42.729 30.0571L52.555 27.7936C52.7585 27.7482 52.8602 28.1348 52.6567 28.1896V28.188ZM92.485 29.5531L82.5119 27.2551C82.4477 27.2394 82.382 27.2378 82.3147 27.2472C82.2489 27.2582 82.1879 27.2801 82.13 27.3161C82.072 27.3506 82.0235 27.3944 81.9828 27.4476C81.9421 27.5008 81.9139 27.5603 81.8967 27.6261L81.8685 27.7294L80.084 27.2613L79.569 28.5168L81.5148 29.0521L81.4866 29.1555C81.4694 29.2212 81.4647 29.2854 81.4741 29.3527C81.4819 29.4184 81.5022 29.4811 81.5335 29.5405C81.5664 29.5985 81.6087 29.6501 81.6603 29.6924C81.712 29.7346 81.7699 29.7644 81.8341 29.7847L91.6178 32.7903C93.0893 33.2427 93.9831 29.9006 92.485 29.5546V29.5531ZM91.8448 32.3113C92.1297 31.682 92.1688 30.7803 91.682 30.6676L82.4415 28.188C82.238 28.1333 82.3382 27.7466 82.5416 27.7936L92.3692 30.0571C93.1394 30.2387 92.5899 32.3911 91.8448 32.3113ZM60.6136 22.1534L55.0314 20.6882L55.537 21.9186L60.9251 23.3979C60.7983 22.9314 60.6935 22.5166 60.6136 22.155V22.1534ZM95.8021 19.0931L90.4422 20.5317C89.1774 20.8698 88.1379 16.9861 89.4028 16.6464L94.7627 15.2062C94.8159 15.1921 94.8362 15.1593 94.8253 15.106C94.8143 15.0528 94.7815 15.0293 94.7282 15.0387L88.8831 15.9514C88.5355 16.0015 88.271 16.1768 88.0894 16.4789L87.0171 18.2149C86.8653 18.4685 86.6712 18.6845 86.4332 18.8599C86.1953 19.0352 85.9323 19.1589 85.6458 19.2277L83.1161 19.8915L82.6277 21.0796L85.8994 20.1811C86.1828 20.0981 86.4724 20.0715 86.7666 20.1043C87.0594 20.1372 87.3364 20.2249 87.5947 20.3689L89.3887 21.3332C89.6971 21.5054 90.0133 21.5257 90.3404 21.3927L95.8569 19.2575C95.9085 19.2371 95.9258 19.2011 95.9085 19.1495C95.8913 19.0978 95.8569 19.079 95.8037 19.0931H95.8021ZM74.4846 22.1534C74.4047 22.5151 74.2983 22.9299 74.1746 23.3979L79.5627 21.9202L80.0683 20.6882L74.4846 22.1534ZM73.273 26.7886L77.1254 27.8468L77.631 26.618L73.586 25.5566C73.4718 25.984 73.3622 26.4004 73.273 26.7901V26.7886ZM57.4672 26.618L57.9728 27.8468L61.8252 26.7886C61.7344 26.3988 61.6264 25.9824 61.5122 25.555L57.4672 26.618Z" fill="#EFEFEF"/>
</g>
<path d="M7.66442 43.7676V49.5219H8.42833C10.407 49.5219 11.3963 48.531 11.3963 46.5477C11.3963 44.6943 10.407 43.7676 8.42833 43.7676H7.66442ZM11.8284 46.5477C11.8284 47.6372 11.5356 48.47 10.9517 49.0461C10.3663 49.619 9.51785 49.9039 8.40329 49.9039H7.21985V43.3731H8.40329C9.5335 43.3731 10.3882 43.6455 10.9643 44.1871C11.5403 44.7256 11.8284 45.513 11.8284 46.5477Z" fill="#EFEFEF"/>
<path d="M19.2363 43.7676H15.9928V46.1783H19.0672V46.5477H15.9928V49.5219H19.2363V49.9039H15.5482V43.3731H19.2363V43.7676Z" fill="#EFEFEF"/>
<path d="M23.7163 43.3731V49.5094H27.0412V49.9039H23.2655V43.3731H23.7163Z" fill="#EFEFEF"/>
<path d="M31.2521 49.9039V43.3731H31.728V49.9039H31.2521Z" fill="#EFEFEF"/>
<path d="M38.4763 49.6096C38.9897 49.6096 39.5032 49.5079 40.0166 49.3028V49.7286C39.5188 49.9039 38.9976 49.9916 38.4512 49.9916C37.6404 49.9916 36.9876 49.7004 36.4914 49.1149C35.9983 48.531 35.7525 47.7045 35.7525 46.6354C35.7525 45.5834 35.9904 44.7631 36.4663 44.1746C36.9422 43.5828 37.5871 43.2854 38.4011 43.2854C38.9522 43.2854 39.475 43.3762 39.9728 43.5547V43.9679C39.4547 43.7676 38.9396 43.6674 38.4262 43.6674C37.7327 43.6674 37.1895 43.9304 36.7982 44.4563C36.4053 44.9792 36.2096 45.7055 36.2096 46.6354C36.2096 47.5621 36.4131 48.2915 36.8232 48.8206C37.2365 49.3466 37.7875 49.6096 38.4763 49.6096Z" fill="#EFEFEF"/>
<path d="M44.3994 49.9039V43.3731H44.8752V49.9039H44.3994Z" fill="#EFEFEF"/>
<path d="M48.812 49.9039L51.1664 43.3731H51.7049L54.0529 49.9039H53.5833L52.857 47.8313H50.0017L49.2754 49.9039H48.812ZM50.1269 47.4619H52.7192L51.4356 43.7738H51.4168L50.1269 47.4619Z" fill="#EFEFEF"/>
<path d="M59.2378 43.2854C59.8671 43.2854 60.4557 43.4138 61.0036 43.6674V44.1119C60.4432 43.8161 59.8671 43.6674 59.2754 43.6674C58.8825 43.6674 58.5553 43.755 58.2923 43.9304C58.0325 44.1057 57.9041 44.3875 57.9041 44.7757C57.9041 45.4519 58.3612 45.9388 59.2754 46.2346C59.9595 46.4569 60.4479 46.7262 60.7406 47.0424C61.0365 47.3601 61.1852 47.7624 61.1852 48.2508C61.1852 48.8191 61.0177 49.2511 60.6842 49.547C60.3493 49.8444 59.8655 49.9916 59.2316 49.9916C58.6179 49.9916 58.0513 49.8382 57.5347 49.5282V49.0774C58.0356 49.4327 58.5882 49.6096 59.194 49.6096C59.6949 49.6096 60.0769 49.4938 60.3399 49.259C60.6028 49.0257 60.7343 48.6892 60.7343 48.2508C60.7343 47.8673 60.6154 47.5495 60.3774 47.2991C60.1426 47.0486 59.7638 46.8389 59.2378 46.6667C58.0513 46.2831 57.4595 45.6523 57.4595 44.7757C57.4595 44.3045 57.6114 43.9398 57.9166 43.6799C58.225 43.4169 58.6649 43.2854 59.2378 43.2854Z" fill="#EFEFEF"/>
<path d="M70.4061 43.7676V49.5219H71.17C73.1487 49.5219 74.138 48.531 74.138 46.5477C74.138 44.6943 73.1487 43.7676 71.17 43.7676H70.4061ZM74.5701 46.5477C74.5701 47.6372 74.2773 48.47 73.6934 49.0461C73.108 49.619 72.2595 49.9039 71.145 49.9039H69.9615V43.3731H71.145C72.2752 43.3731 73.1299 43.6455 73.706 44.1871C74.282 44.7256 74.5701 45.513 74.5701 46.5477Z" fill="#EFEFEF"/>
<path d="M77.7953 49.9039L80.1496 43.3731H80.6881L83.0362 49.9039H82.5666L81.8403 47.8313H78.985L78.2586 49.9039H77.7953ZM79.1102 47.4619H81.7025L80.4189 43.7738H80.4001L79.1102 47.4619Z" fill="#EFEFEF"/>
<path d="M93.8674 49.6096C94.3808 49.6096 94.8943 49.5079 95.4077 49.3028V49.7286C94.91 49.9039 94.3887 49.9916 93.8424 49.9916C93.0315 49.9916 92.3787 49.7004 91.8825 49.1149C91.3894 48.531 91.1436 47.7045 91.1436 46.6354C91.1436 45.5834 91.3816 44.7631 91.8574 44.1746C92.3333 43.5828 92.9783 43.2854 93.7923 43.2854C94.3433 43.2854 94.8661 43.3762 95.3639 43.5547V43.9679C94.8458 43.7676 94.3308 43.6674 93.8173 43.6674C93.1238 43.6674 92.5806 43.9304 92.1893 44.4563C91.7964 44.9792 91.6007 45.7055 91.6007 46.6354C91.6007 47.5621 91.8042 48.2915 92.2143 48.8206C92.6276 49.3466 93.1786 49.6096 93.8674 49.6096Z" fill="#EFEFEF"/>
<path d="M98.9827 49.9039L101.337 43.3731H101.876L104.224 49.9039H103.754L103.028 47.8313H100.172L99.4461 49.9039H98.9827ZM100.298 47.4619H102.89L101.606 43.7738H101.588L100.298 47.4619Z" fill="#EFEFEF"/>
<path d="M107.849 49.9039V43.3731H109.214C110.983 43.3731 111.869 43.8975 111.869 44.9447C111.869 45.9215 111.364 46.5148 110.354 46.723V46.7543C110.52 46.8216 110.667 46.9484 110.792 47.1363C110.918 47.3241 111.065 47.6153 111.237 48.0066L112.045 49.9039H111.575L110.799 48.063C110.698 47.8251 110.612 47.6435 110.542 47.5182C110.475 47.393 110.401 47.2803 110.323 47.1801C110.243 47.0799 110.151 47.0157 110.047 46.986C109.942 46.9531 109.83 46.9297 109.709 46.9171C109.592 46.9015 109.418 46.8921 109.189 46.8921H108.294V49.9039H107.849ZM108.294 46.5164H109.189C109.981 46.5164 110.554 46.3912 110.905 46.1407C111.259 45.8902 111.437 45.5004 111.437 44.9698C111.437 44.5612 111.265 44.2591 110.924 44.0619C110.586 43.8662 110.028 43.7676 109.252 43.7676H108.294V46.5164Z" fill="#EFEFEF"/>
<path d="M115.811 49.9039V43.3731H116.331L119.85 49.2214H119.869V43.3731H120.313V49.9039H119.8L116.268 44.0556H116.256V49.9039H115.811Z" fill="#EFEFEF"/>
<path d="M128.116 43.7676H124.872V46.1783H127.947V46.5477H124.872V49.5219H128.116V49.9039H124.428V43.3731H128.116V43.7676Z" fill="#EFEFEF"/>
<path d="M43.5174 57.7388C44.477 57.7388 44.9043 57.23 44.9528 56.4692H44.5709C44.5302 57.0766 44.1889 57.4288 43.5095 57.4288C42.7613 57.4288 42.4153 56.9999 42.4153 56.164C42.4153 55.3265 42.7707 54.8992 43.5174 54.8992C44.1654 54.8992 44.4989 55.2013 44.5615 55.7852H44.9403C44.8683 55.0432 44.4488 54.5892 43.5268 54.5892C42.4967 54.5892 42.024 55.2639 42.024 56.164C42.024 57.0719 42.4873 57.7388 43.5174 57.7388Z" fill="#EFEFEF"/>
<path d="M48.7596 57.6621H49.1384L48.0035 54.6706H47.451L46.316 57.6621H46.6902L46.9829 56.8966H48.4669L48.7596 57.6621ZM47.0956 56.596L47.7249 54.9399L48.3542 56.596H47.0956Z" fill="#EFEFEF"/>
<path d="M50.5004 56.6367C50.5004 57.2253 50.8338 57.7294 51.8059 57.7294C52.6387 57.7294 52.9893 57.4006 52.9893 56.8293C52.9893 56.3487 52.706 56.1139 52.1753 56.0294L51.4286 55.9167C51.0905 55.8619 50.9778 55.6772 50.9778 55.4439C50.9778 55.1105 51.2032 54.8819 51.7339 54.8819C52.2959 54.8819 52.5479 55.1559 52.5886 55.5613H52.9486C52.9079 54.9852 52.5213 54.5892 51.7386 54.5892C50.9653 54.5892 50.6006 54.9712 50.6006 55.4533C50.6006 55.9026 50.8385 56.1593 51.3598 56.236L52.0673 56.344C52.4446 56.4066 52.6121 56.5647 52.6121 56.8794C52.6121 57.2253 52.4227 57.4367 51.8059 57.4367C51.1124 57.4367 50.8745 57.1001 50.8651 56.6367H50.5004Z" fill="#EFEFEF"/>
<path d="M56.8091 57.6621H57.1879L56.053 54.6706H55.5005L54.3655 57.6621H54.7397L55.0324 56.8966H56.5164L56.8091 57.6621ZM55.1451 56.596L55.7744 54.9399L56.4037 56.596H55.1451Z" fill="#EFEFEF"/>
<path d="M61.849 54.6706H60.6061V57.6621H61.849C62.8289 57.6621 63.2438 56.9827 63.2438 56.1593C63.2438 55.3453 62.8289 54.6706 61.849 54.6706ZM61.7817 57.36H60.9802V54.9712H61.7817C62.5816 54.9712 62.8524 55.3985 62.8524 56.1593C62.8524 56.9201 62.5769 57.36 61.7817 57.36Z" fill="#EFEFEF"/>
<path d="M65.1197 57.36V56.272H66.8244V55.9746H65.1197V54.9712H66.9606V54.6706H64.7456V57.6621H66.9732V57.36H65.1197Z" fill="#EFEFEF"/>
<path d="M71.9538 57.7388C72.9134 57.7388 73.3408 57.23 73.3893 56.4692H73.0073C72.9666 57.0766 72.6254 57.4288 71.946 57.4288C71.1977 57.4288 70.8518 56.9999 70.8518 56.164C70.8518 55.3265 71.2071 54.8992 71.9538 54.8992C72.6019 54.8992 72.9353 55.2013 72.998 55.7852H73.3768C73.3048 55.0432 72.8852 54.5892 71.9632 54.5892C70.9332 54.5892 70.4604 55.2639 70.4604 56.164C70.4604 57.0719 70.9238 57.7388 71.9538 57.7388Z" fill="#EFEFEF"/>
<path d="M77.1961 57.6621H77.5749L76.44 54.6706H75.8874L74.7525 57.6621H75.1266L75.4194 56.8966H76.9034L77.1961 57.6621ZM75.5321 56.596L76.1614 54.9399L76.7906 56.596H75.5321Z" fill="#EFEFEF"/>
<path d="M81.227 56.87C81.227 56.4285 81.025 56.2939 80.7417 56.2125C81.0751 56.1374 81.3224 55.8572 81.3224 55.458C81.3224 54.9759 81.0203 54.6706 80.4036 54.6706H79.0088V57.6621H79.3829V56.3205H80.2251C80.6384 56.3205 80.8685 56.4974 80.8685 56.9248V57.1987C80.8685 57.4147 80.8904 57.5635 80.9217 57.6621H81.2864C81.2598 57.5494 81.227 57.4054 81.227 57.1846V56.87ZM80.3597 56.0419H79.3829V54.9712H80.3644C80.7558 54.9712 80.9311 55.1418 80.9311 55.4893C80.9311 55.8306 80.7777 56.0419 80.3597 56.0419Z" fill="#EFEFEF"/>
<path d="M85.0708 54.6706V57.41C85.0113 57.2754 84.9393 57.1267 84.8814 57.0234L83.5226 54.6706H82.8918V57.6621H83.2659V54.9226C83.316 55.0385 83.3786 55.17 83.4553 55.314L84.8141 57.6621H85.4387V54.6706H85.0708Z" fill="#EFEFEF"/>
<path d="M87.4009 57.36V56.272H89.1056V55.9746H87.4009V54.9712H89.2418V54.6706H87.0268V57.6621H89.2543V57.36H87.4009Z" fill="#EFEFEF"/>
<path d="M90.7433 56.6367C90.7433 57.2253 91.0768 57.7294 92.0489 57.7294C92.8817 57.7294 93.2323 57.4006 93.2323 56.8293C93.2323 56.3487 92.949 56.1139 92.4183 56.0294L91.6716 55.9167C91.3335 55.8619 91.2208 55.6772 91.2208 55.4439C91.2208 55.1105 91.4462 54.8819 91.9769 54.8819C92.5389 54.8819 92.7909 55.1559 92.8316 55.5613H93.1916C93.1509 54.9852 92.7643 54.5892 91.9816 54.5892C91.2083 54.5892 90.8435 54.9712 90.8435 55.4533C90.8435 55.9026 91.0815 56.1593 91.6027 56.236L92.3103 56.344C92.6876 56.4066 92.8551 56.5647 92.8551 56.8794C92.8551 57.2253 92.6657 57.4367 92.0489 57.4367C91.3554 57.4367 91.1175 57.1001 91.1081 56.6367H90.7433Z" fill="#EFEFEF"/>
<path d="M26.8091 22.5351V23.3366H24.1918V20.187H26.7528V20.9885H25.2375V21.3579H26.5712V22.1219H25.2375V22.5351H26.8091Z" fill="white"/>
<path d="M29.3689 23.4117C29.106 23.4117 28.8492 23.382 28.5988 23.3241C28.3514 23.2615 28.1495 23.1832 27.9914 23.0861L28.3358 22.3097C28.4861 22.3974 28.652 22.4694 28.8367 22.5226C29.0246 22.5727 29.203 22.5977 29.3752 22.5977C29.5208 22.5977 29.6257 22.5836 29.6883 22.5539C29.754 22.5257 29.7885 22.4835 29.7885 22.4287C29.7885 22.3629 29.7462 22.3128 29.6632 22.2784C29.5787 22.2455 29.4441 22.2095 29.2562 22.172C29.0089 22.1219 28.8054 22.0686 28.6426 22.0091C28.4829 21.9512 28.3436 21.8557 28.2231 21.7211C28.101 21.5881 28.0415 21.4065 28.0415 21.1764C28.0415 20.976 28.0947 20.7975 28.2043 20.6379C28.317 20.4751 28.4829 20.3483 28.7052 20.2559C28.9259 20.1604 29.1952 20.1119 29.513 20.1119C29.7259 20.1119 29.9356 20.1354 30.1454 20.1808C30.3536 20.2277 30.5367 20.2966 30.6964 20.3874L30.3771 21.1576C30.0671 21.0042 29.7759 20.9259 29.5004 20.9259C29.2281 20.9259 29.0934 20.9916 29.0934 21.12C29.0934 21.1826 29.1326 21.2311 29.2124 21.264C29.2954 21.2938 29.4284 21.3266 29.6131 21.3642C29.8542 21.4112 30.0577 21.4628 30.2205 21.5207C30.3864 21.5802 30.5305 21.6757 30.6526 21.8088C30.7731 21.9387 30.8341 22.1187 30.8341 22.3473C30.8341 22.5445 30.7778 22.723 30.6651 22.8858C30.5555 23.0454 30.3911 23.1722 30.1704 23.2677C29.9481 23.3632 29.682 23.4117 29.3689 23.4117Z" fill="white"/>
<path d="M24.8742 27.0065H23.9538V26.1862H26.8592V27.0065H25.9387V29.3358H24.8742V27.0065Z" fill="white"/>
<path d="M28.1063 26.1862H29.6591C30.0098 26.1862 30.3182 26.252 30.5858 26.3804C30.8567 26.5056 31.0649 26.6872 31.212 26.9251C31.3623 27.1599 31.4374 27.437 31.4374 27.7579C31.4374 28.0804 31.3623 28.359 31.212 28.597C31.0649 28.8349 30.8567 29.0196 30.5858 29.148C30.3182 29.2732 30.0098 29.3358 29.6591 29.3358H28.1063V26.1862ZM29.6153 28.5093C29.8407 28.5093 30.0223 28.4451 30.1601 28.3152C30.2978 28.1821 30.3667 27.9958 30.3667 27.7579C30.3667 27.5247 30.2978 27.3431 30.1601 27.2131C30.0223 27.0801 29.8407 27.0128 29.6153 27.0128H29.1707V28.5093H29.6153Z" fill="white"/>
<path d="M107.35 20.187V23.3366H106.285V20.9885H105.747V20.187H107.35Z" fill="white"/>
<path d="M109.908 20.1119C110.209 20.1119 110.472 20.1714 110.697 20.2872C110.926 20.4046 111.104 20.5799 111.229 20.8132C111.355 21.0433 111.417 21.3266 111.417 21.6648C111.417 22.0248 111.344 22.3348 111.198 22.5977C111.056 22.8607 110.854 23.0642 110.591 23.2051C110.328 23.3429 110.021 23.4117 109.67 23.4117C109.482 23.4117 109.302 23.3883 109.132 23.3429C108.959 23.3022 108.814 23.2411 108.693 23.1613L109.082 22.4162C109.235 22.5289 109.426 22.5852 109.651 22.5852C109.835 22.5852 109.985 22.5398 110.102 22.4475C110.218 22.3567 110.296 22.222 110.334 22.0467C110.171 22.1641 109.961 22.222 109.708 22.222C109.515 22.222 109.335 22.1813 109.169 22.0968C109.006 22.0138 108.875 21.8964 108.775 21.7462C108.678 21.5928 108.631 21.4143 108.631 21.2139C108.631 20.9979 108.687 20.8054 108.8 20.6379C108.913 20.4672 109.064 20.3373 109.257 20.2496C109.453 20.1589 109.67 20.1119 109.908 20.1119ZM109.977 21.4894C110.072 21.4894 110.149 21.4613 110.209 21.4018C110.271 21.3439 110.303 21.264 110.303 21.1638C110.303 21.0683 110.271 20.9916 110.209 20.9322C110.149 20.8742 110.072 20.8445 109.977 20.8445C109.88 20.8445 109.803 20.8742 109.745 20.9322C109.686 20.9916 109.658 21.0683 109.658 21.1638C109.658 21.264 109.686 21.3439 109.745 21.4018C109.803 21.4613 109.88 21.4894 109.977 21.4894Z" fill="white"/>
<path d="M107.261 27.6765C107.394 27.761 107.498 27.8628 107.574 27.9833C107.649 28.1054 107.686 28.2432 107.686 28.3966C107.686 28.6017 107.625 28.7817 107.505 28.9351C107.387 29.0854 107.22 29.2028 107.004 29.2857C106.791 29.3687 106.547 29.411 106.271 29.411C105.996 29.411 105.748 29.3687 105.532 29.2857C105.319 29.2028 105.152 29.0854 105.031 28.9351C104.914 28.7817 104.856 28.6017 104.856 28.3966C104.856 28.2432 104.891 28.1054 104.963 27.9833C105.038 27.8628 105.144 27.761 105.282 27.6765C105.072 27.5106 104.969 27.3008 104.969 27.0504C104.969 26.8625 105.022 26.6997 105.132 26.5619C105.24 26.4211 105.391 26.3099 105.589 26.2301C105.789 26.1518 106.016 26.1111 106.271 26.1111C106.525 26.1111 106.75 26.1518 106.947 26.2301C107.143 26.3099 107.295 26.4211 107.405 26.5619C107.517 26.6997 107.574 26.8625 107.574 27.0504C107.574 27.3008 107.469 27.5106 107.261 27.6765ZM106.271 26.8312C106.196 26.8312 106.133 26.8562 106.083 26.9063C106.036 26.9533 106.014 27.0175 106.014 27.1004C106.014 27.185 106.036 27.2507 106.083 27.3008C106.133 27.3478 106.196 27.3697 106.271 27.3697C106.346 27.3697 106.406 27.3478 106.453 27.3008C106.498 27.2507 106.522 27.185 106.522 27.1004C106.522 27.0175 106.498 26.9533 106.453 26.9063C106.406 26.8562 106.346 26.8312 106.271 26.8312ZM106.271 28.6909C106.371 28.6909 106.453 28.6627 106.515 28.6032C106.581 28.5406 106.616 28.4623 106.616 28.3653C106.616 28.2651 106.581 28.1868 106.515 28.1273C106.453 28.0647 106.371 28.0334 106.271 28.0334C106.166 28.0334 106.08 28.0647 106.014 28.1273C105.952 28.1868 105.921 28.2651 105.921 28.3653C105.921 28.4623 105.952 28.5406 106.014 28.6032C106.08 28.6627 106.166 28.6909 106.271 28.6909Z" fill="white"/>
<path d="M111.415 28.5093V29.3358H108.891V28.6846L110.031 27.6327C110.131 27.5372 110.197 27.4574 110.231 27.3947C110.264 27.329 110.281 27.2617 110.281 27.1944C110.281 27.1192 110.253 27.0613 110.2 27.019C110.145 26.9736 110.07 26.9502 109.974 26.9502C109.877 26.9502 109.787 26.9752 109.699 27.0253C109.614 27.0754 109.552 27.149 109.511 27.2445L108.71 26.8437C108.825 26.6183 108.999 26.4414 109.229 26.3115C109.462 26.1784 109.744 26.1111 110.075 26.1111C110.32 26.1111 110.539 26.1534 110.732 26.2363C110.923 26.3162 111.073 26.4305 111.183 26.5807C111.291 26.731 111.346 26.9048 111.346 27.1004C111.346 27.2726 111.308 27.4354 111.233 27.5888C111.161 27.7391 111.02 27.9113 110.807 28.1023L110.356 28.5093H111.415Z" fill="white"/>
</svg>
